<?xml version="1.0" standalone="no"?>
<!DOCTYPE svg PUBLIC "-//W3C//DTD SVG 20010904//EN"
 "http://www.w3.org/TR/2001/REC-SVG-20010904/DTD/svg10.dtd">
<svg version="1.0" xmlns="http://www.w3.org/2000/svg"
 width="260.000000pt" height="260.000000pt" viewBox="0 0 260.000000 260.000000"
 preserveAspectRatio="xMidYMid meet">
<metadata>
Created by potrace 1.11, written by Peter Selinger 2001-2013
</metadata>
<g transform="translate(0.000000,260.000000) scale(0.100000,-0.100000)"
fill="#000000" stroke="none">
<path d="M1029 2405 c-332 -82 -605 -302 -758 -611 -40 -81 -84 -210 -95 -276
l-6 -38 195 0 c178 0 196 2 201 18 36 112 85 203 154 285 91 109 247 209 382
244 l66 17 0 193 c0 225 16 206 -139 168z"/>
<path d="M1544 2214 l1 -197 80 -41 c193 -99 328 -253 390 -443 l17 -53 199 0
c218 0 207 -4 188 64 -6 21 -12 46 -14 55 -2 9 -18 55 -35 103 -93 255 -305
489 -558 617 -61 31 -231 91 -256 91 -10 0 -13 -46 -12 -196z"/>
<path d="M174 1098 c-11 -17 50 -210 95 -303 137 -280 375 -491 666 -590 90
-30 214 -53 224 -41 5 6 9 95 9 197 l1 186 -52 13 c-243 61 -447 247 -533 484
l-22 61 -192 0 c-105 0 -194 -3 -196 -7z"/>
<path d="M2015 1056 c-63 -190 -202 -348 -389 -440 l-83 -41 0 -203 c0 -179 2
-202 16 -198 286 78 480 205 662 433 36 44 107 172 137 243 36 87 77 239 67
248 -3 4 -94 7 -200 7 l-194 0 -16 -49z"/>
</g>
</svg>
